#!OML:ASF H:\Terrain\Patient Classification 1\Takeo\Monday\TakeoMonday.ASF
:FULLY-SPECIFIED
:DEGREES
422
root 17.947 17.1374 -2.58252 -146.873 -83.0376 145.045
lowerback 8.2182 -0.335932 -0.655548
upperback 3.61738 -0.596184 0.832149
thorax -0.852815 -0.358329 1.27822
lowerneck -5.53146 17.0763 8.6248
upperneck 2.1898 22.9317 -12.3382
head 3.93486 11.1184 -3.42345
rclavicle 4.17448e-015 -3.97569e-015
rhumerus -3.16076 -15.5709 -15.9469
rradius 75.5552
rwrist -27.576
rhand -37.5039 23.0406
rfingers 7.12502
rthumb -10.5607 -6.67411
lclavicle 4.17448e-015 -3.97569e-015
lhumerus -23.9712 0.877034 72.2575
lradius 84.6724
lwrist 24.588
lhand -27.7334 21.5282
lfingers 7.12502
lthumb -1.12842 51.5049
rfemur -15.1999 -0.697214 13.0907
rtibia 42.7512
rfoot -21.9017 -5.43085
rtoes -3.6198
lfemur -7.1422 17.0146 -11.2397
ltibia 35.8851
lfoot -23.9366 30.0914
ltoes 11.0507
423
root 17.9433 17.12 -2.60477 -148.011 -82.9712 146.186
lowerback 8.31846 -0.44877 -0.553886
upperback 3.63117 -0.74025 0.879953
thorax -0.89055 -0.430528 1.28412
lowerneck -5.06705 17.1273 8.89441
upperneck 1.89848 23.0088 -12.6457
head 3.84945 11.1758 -3.57986
rclavicle 2.5842e-015 -7.15625e-015
rhumerus -3.62576 -16.5288 -15.9369
rradius 75.2791
rwrist -29.2094
rhand -35.6271 24.9266
rfingers 7.12502
rthumb -8.74997 -4.87202
lclavicle 2.5842e-015 -7.15625e-015
lhumerus -23.9909 0.95781 72.1137
lradius 84.795
lwrist 24.8818
lhand -27.997 20.9825
lfingers 7.12502
lthumb -1.383 50.9578
rfemur -15.3856 -0.301809 13.2823
rtibia 43.1554
rfoot -22.2461 -5.4394
rtoes -1.75743
lfemur -7.35169 17.0526 -11.0357
ltibia 36.3601
lfoot -23.6285 30.3037
ltoes 11.048
424
root 17.9432 17.1051 -2.62754 -148.994 -82.9307 147.2
lowerback 8.38457 -0.625246 -0.462803
upperback 3.62663 -0.967964 0.974482
thorax -0.925395 -0.544631 1.35165
lowerneck -4.49927 17.2693 8.97785
upperneck 1.6188 23.2247 -12.8979
head 3.73835 11.3069 -3.69339
rclavicle 2.0276e-014 -1.19271e-014
rhumerus -4.10189 -17.311 -15.8348
rradius 75.2708
rwrist -30.541
rhand -34.3539 26.0026
rfingers 7.12502
rthumb -7.5212 -3.84364
lclavicle 2.0276e-014 -1.19271e-014
lhumerus -24.1831 1.28924 72.0707
lradius 84.9347
lwrist 24.7914
lhand -28.2075 20.7373
lfingers 7.12502
lthumb -1.58635 50.7112
rfemur -15.627 -0.0338507 13.4994
rtibia 43.5408
rfoot -22.4757 -5.54701
rtoes -0.978661
lfemur -7.6531 17.1125 -10.8677
ltibia 36.839
lfoot -23.5472 30.4915
ltoes 10.5721
425
root 17.9405 17.094 -2.6472 -148.081 -82.8586 146.071
lowerback 8.6011 -0.666394 -0.412912
upperback 3.6927 -1.02619 0.744195
thorax -0.980165 -0.573084 1.09448
lowerneck -4.20875 17.1886 9.93536
upperneck 1.71343 23.1248 -13.2491
head 3.86258 11.2645 -3.92581
rclavicle 1.19271e-015 3.97569e-015
rhumerus -5.22259 -17.6741 -15.7926
rradius 75.305
rwrist -29.6987
rhand -36.0175 24.9919
rfingers 7.12502
rthumb -9.12665 -4.79063
lclavicle 1.19271e-015 3.97569e-015
lhumerus -23.9606 0.91575 71.8294
lradius 84.8697
lwrist 24.7553
lhand -28.446 20.835
lfingers 7.12502
lthumb -1.81668 50.8071
rfemur -15.5818 -0.396504 13.4145
rtibia 43.9204
rfoot -22.6253 -5.5788
rtoes -2.04014
lfemur -7.70751 17.0107 -10.8997
ltibia 37.3134
lfoot -23.4439 30.7517
ltoes 10.2775
426
root 17.9317 17.0771 -2.66578 -146.076 -82.6715 143.782
lowerback 8.75336 -0.61471 -0.586648
upperback 3.85735 -0.982505 0.564806
thorax -0.895205 -0.55583 1.00399
lowerneck -4.3345 17.0295 10.2304
upperneck 1.94297 22.9069 -13.229
head 3.95869 11.1498 -3.95901
rclavicle 1.2424e-014 1.35174e-014
rhumerus -6.30236 -18.0034 -15.5806
rradius 75.4976
rwrist -28.1885
rhand -37.9671 22.6631
rfingers 7.12502
rthumb -11.0076 -7.02827
lclavicle 1.2424e-014 1.35174e-014
lhumerus -23.478 0.438675 71.8161
lradius 84.7691
lwrist 24.646
lhand -28.6492 20.7586
lfingers 7.12502
lthumb -2.01295 50.7288
rfemur -15.4229 -0.770168 13.0956
rtibia 44.2931
rfoot -22.8553 -5.56422
rtoes -3.35005
lfemur -7.63519 17.0145 -11.1225
ltibia 37.7791
lfoot -23.5167 30.873
ltoes 10.4149
427
root 17.923 17.0526 -2.68365 -145.417 -82.56 143.062
lowerback 8.75463 -0.515297 -0.608517
upperback 3.91462 -0.855043 0.538199
thorax -0.839578 -0.493651 0.976538
lowerneck -4.55459 16.909 10.228
upperneck 2.37794 22.7493 -12.9446
head 4.0723 11.0624 -3.86367
rclavicle -6.16232e-015 2.78299e-014
rhumerus -7.19226 -18.713 -15.3356
rradius 75.5886
rwrist -27.5702
rhand -38.6199 21.0373
rfingers 7.12502
rthumb -11.6372 -8.61952
lclavicle -6.16232e-015 2.78299e-014
lhumerus -23.1191 -0.120045 71.9362
lradius 84.8348
lwrist 24.7338
lhand -28.8466 20.9397
lfingers 7.12502
lthumb -2.20357 50.908
rfemur -15.4855 -0.776534 13.0296
rtibia 44.6351
rfoot -23.0941 -5.68047
rtoes -3.93584
lfemur -7.77846 17.281 -11.1976
ltibia 38.2301
lfoot -23.4868 30.9006
ltoes 9.88807
428
root 17.9176 17.035 -2.70013 -146.215 -82.5807 143.92
lowerback 8.74778 -0.485109 -0.552687
upperback 3.84807 -0.805971 0.657516
thorax -0.90456 -0.467859 1.06411
lowerneck -4.23325 16.8023 11.0302
upperneck 2.63189 22.6587 -13.4714
head 4.24362 11.0166 -4.12574
rclavicle -3.18055e-015 0
rhumerus -7.60443 -19.2923 -15.3171
rradius 75.1894
rwrist -27.476
rhand -39.2532 20.4411
rfingers 7.12502
rthumb -12.2478 -9.1803
lclavicle -3.18055e-015 0
lhumerus -23.0349 -0.428517 72.1013
lradius 84.9467
lwrist 25.1569
lhand -28.9723 21.3489
lfingers 7.12502
lthumb -2.32495 51.3159
rfemur -15.6854 -0.667444 13.2582
rtibia 44.9686
rfoot -23.2458 -6.06173
rtoes -4.61504
lfemur -8.03924 17.6056 -11.0182
ltibia 38.663
lfoot -23.2512 30.9403
ltoes 9.71878
429
root 17.9148 17.0168 -2.71878 -147.071 -82.5211 144.753
lowerback 8.78327 -0.456853 -0.661864
upperback 3.8399 -0.775769 0.787735
thorax -0.929804 -0.454965 1.25752
lowerneck -3.46224 16.7383 11.8096
upperneck 2.38431 22.6393 -14.217
head 4.22384 11.0321 -4.49814
rclavicle 1.59028e-015 -5.56597e-015
rhumerus -8.08783 -19.6812 -15.1576
rradius 74.7397
rwrist -27.7558
rhand -39.8574 20.6034
rfingers 7.12502
rthumb -12.8303 -8.98233
lclavicle 1.59028e-015 -5.56597e-015
lhumerus -22.9401 -0.487547 72.3637
lradius 84.9748
lwrist 25.2448
lhand -29.1533 21.4184
lfingers 7.12502
lthumb -2.49973 51.3835
rfemur -15.8742 -0.622497 13.4347
rtibia 45.303
rfoot -23.2672 -6.55721
rtoes -6.56777
lfemur -8.17959 17.9046 -10.8408
ltibia 39.0943
lfoot -23.3579 30.8365
ltoes 10.2046
430
root 17.9152 16.9925 -2.73766 -147.049 -82.3641 144.628
lowerback 8.87976 -0.414837 -0.872683
upperback 3.88577 -0.739869 0.83098
thorax -0.933045 -0.441007 1.41824
lowerneck -3.36192 16.728 11.4723
upperneck 2.45468 22.6208 -13.7812
head 4.13447 11.0372 -4.34872
rclavicle 3.10104e-014 -4.13472e-014
rhumerus -8.59981 -20.2239 -14.8705
rradius 74.2832
rwrist -28.0279
rhand -39.4871 20.8803
rfingers 7.12502
rthumb -12.4734 -8.72744
lclavicle 3.10104e-014 -4.13472e-014
lhumerus -22.7942 -0.521716 72.5236
lradius 85.0859
lwrist 25.1284
lhand -29.3272 21.098
lfingers 7.12502
lthumb -2.66773 51.0611
rfemur -16.0071 -0.608133 13.4085
rtibia 45.6227
rfoot -23.2809 -6.70961
rtoes -7.83155
lfemur -8.25875 18.2444 -10.8299
ltibia 39.5084
lfoot -23.7373 30.5868
ltoes 10.6648
431
root 17.9125 16.9723 -2.75249 -147.564 -82.2396 145.109
lowerback 8.90325 -0.387766 -0.780731
upperback 3.90289 -0.698534 0.772302
thorax -0.931473 -0.419483 1.30226
lowerneck -3.20267 16.6565 11.6101
upperneck 2.4346 22.5254 -13.7285
head 4.10001 11.0016 -4.37722
rclavicle -2.26615e-014 1.27222e-014
rhumerus -9.09434 -20.9359 -14.8403
rradius 73.7837
rwrist -27.7769
rhand -38.8901 20.9669
rfingers 7.12502
rthumb -11.8976 -8.67504
lclavicle -2.26615e-014 1.27222e-014
lhumerus -22.6727 -0.662684 72.405
lradius 85.1799
lwrist 25.0823
lhand -28.9787 20.5637
lfingers 7.12502
lthumb -2.33111 50.5307
rfemur -16.1475 -0.590233 13.4447
rtibia 45.9265
rfoot -23.4075 -6.50994
rtoes -7.84609
lfemur -8.38657 18.6015 -10.754
ltibia 39.8883
lfoot -24.1615 30.3356
ltoes 11.7695
